<svg
    xmlns="http://www.w3.org/2000/svg" viewBox="0 0 91.7 133.2">
    <path d="M38.4,132.3q-6.7-4-10.8-15.6a77.8,77.8,0,0,1-4.2-26.2,77.4,77.4,0,0,1,4.2-26q4.2-11.6,10.8-15.6l1.5-.9H38.3A41.6,41.6,0,0,0,11,61.8,41.5,41.5,0,0,0,0,90.4a41.2,41.2,0,0,0,11,28.7A41.3,41.3,0,0,0,38.3,133l1.7.2-.8-.5Z" />
    <path d="M65.2,65.5v3.4a18.4,18.4,0,0,1-1.4,7.3,17.2,17.2,0,0,1-4,6,16.5,16.5,0,0,1-6,3.9,18,18,0,0,1-7.1,1.4h-.3V70.8q0-9.8.2-22.5v-.5h1.2a17,17,0,0,1,6.7,1.2,17.6,17.6,0,0,1,5.6,4,17.2,17.2,0,0,1,3.9,5.7A16.2,16.2,0,0,1,65.2,65.5Z" />
    <path d="M90.4,11.5a18,18,0,0,0-3.7-6,15.8,15.8,0,0,0-5.6-4A14.3,14.3,0,0,0,74.6,0H73.4V133.2h1.2a14.3,14.3,0,0,0,6.5-1.5,15.8,15.8,0,0,0,5.6-4,19.6,19.6,0,0,0,5-12.8V18.3A17.9,17.9,0,0,0,90.4,11.5Z"/>
</svg>